<mxfile host="app.diagrams.net" modified="2023-12-15T15:38:59.845Z" agent="Mozilla/5.0 (Windows NT 10.0; Win64; x64) AppleWebKit/537.36 (KHTML, like Gecko) Chrome/120.0.0.0 Safari/537.36" version="22.1.11" etag="okEjMUm9Tlrx2I646Tub" type="github">
  <diagram name="Page-1" id="YVBJEgZap607-k-v_YbD">
    <mxGraphModel>
      <root>
        <mxCell id="0" />
        <mxCell id="1" parent="0" />
      </root>
    </mxGraphModel>
  </diagram>
</mxfile>
